<?xml version="1.0" standalone="no"?><svg xmlns="http://www.w3.org/2000/svg" viewBox="0 0 1440 320"><path fill="#f54363" fill-opacity="1" d="M0,224L40,197.3C80,171,160,117,240,128C320,139,400,213,480,256C560,299,640,309,720,282.7C800,256,880,192,960,165.3C1040,139,1120,149,1200,181.3C1280,213,1360,267,1400,293.3L1440,320L1440,320L1400,320C1360,320,1280,320,1200,320C1120,320,1040,320,960,320C880,320,800,320,720,320C640,320,560,320,480,320C400,320,320,320,240,320C160,320,80,320,40,320L0,320Z"></path></svg>